<mxfile host="app.diagrams.net" agent="Mozilla/5.0 (Macintosh; Intel Mac OS X 10_15_7) AppleWebKit/537.36 (KHTML, like Gecko) Chrome/134.0.0.0 Safari/537.36" version="24.7.13">
  <diagram name="Page-1" id="qg6U3Jjw-w0L5xuoLJwG">
    <mxGraphModel dx="1593" dy="1219" grid="0" gridSize="10" guides="1" tooltips="1" connect="1" arrows="1" fold="1" page="0" pageScale="1" pageWidth="850" pageHeight="1100" math="0" shadow="0">
      <root>
        <mxCell id="0" />
        <mxCell id="1" parent="0" />
        <mxCell id="YnPN1Vs9XmY59s9IWsl6-5" value="" style="edgeStyle=none;curved=1;rounded=0;orthogonalLoop=1;jettySize=auto;html=1;fontSize=12;startSize=8;endSize=8;" edge="1" parent="1" source="YnPN1Vs9XmY59s9IWsl6-1" target="YnPN1Vs9XmY59s9IWsl6-2">
          <mxGeometry relative="1" as="geometry">
            <mxPoint x="-138" y="155.5" as="targetPoint" />
          </mxGeometry>
        </mxCell>
        <mxCell id="YnPN1Vs9XmY59s9IWsl6-1" value="" style="verticalLabelPosition=bottom;html=1;verticalAlign=top;align=center;strokeColor=none;fillColor=#00BEF2;shape=mxgraph.azure.laptop;pointerEvents=1;" vertex="1" parent="1">
          <mxGeometry x="-378" y="113" width="120" height="85" as="geometry" />
        </mxCell>
        <mxCell id="YnPN1Vs9XmY59s9IWsl6-2" value="" style="sketch=0;outlineConnect=0;fontColor=#232F3E;gradientColor=none;fillColor=#232F3D;strokeColor=none;dashed=0;verticalLabelPosition=bottom;verticalAlign=top;align=center;html=1;fontSize=12;fontStyle=0;aspect=fixed;pointerEvents=1;shape=mxgraph.aws4.traditional_server;" vertex="1" parent="1">
          <mxGeometry x="-138" y="31" width="64.33" height="111.5" as="geometry" />
        </mxCell>
        <mxCell id="YnPN1Vs9XmY59s9IWsl6-6" value="Message" style="ellipse;whiteSpace=wrap;html=1;aspect=fixed;" vertex="1" parent="1">
          <mxGeometry x="-241" y="-27" width="51" height="51" as="geometry" />
        </mxCell>
        <mxCell id="YnPN1Vs9XmY59s9IWsl6-7" value="" style="ellipse;whiteSpace=wrap;html=1;aspect=fixed;fillColor=none;" vertex="1" parent="1">
          <mxGeometry x="-255.5" y="-41.5" width="80" height="80" as="geometry" />
        </mxCell>
        <mxCell id="YnPN1Vs9XmY59s9IWsl6-8" value="" style="ellipse;whiteSpace=wrap;html=1;aspect=fixed;fillColor=none;" vertex="1" parent="1">
          <mxGeometry x="-272.5" y="-61" width="114" height="114" as="geometry" />
        </mxCell>
        <mxCell id="YnPN1Vs9XmY59s9IWsl6-10" value="" style="ellipse;whiteSpace=wrap;html=1;aspect=fixed;fillColor=none;strokeColor=#9673a6;" vertex="1" parent="1">
          <mxGeometry x="-294" y="-82.5" width="157" height="157" as="geometry" />
        </mxCell>
        <mxCell id="YnPN1Vs9XmY59s9IWsl6-12" value="Key1" style="sketch=0;pointerEvents=1;shadow=0;dashed=0;html=1;strokeColor=none;fillColor=#505050;labelPosition=center;verticalLabelPosition=bottom;verticalAlign=top;outlineConnect=0;align=center;shape=mxgraph.office.security.key_permissions;" vertex="1" parent="1">
          <mxGeometry x="-118" y="113" width="25" height="53" as="geometry" />
        </mxCell>
        <mxCell id="YnPN1Vs9XmY59s9IWsl6-13" value="" style="sketch=0;pointerEvents=1;shadow=0;dashed=0;html=1;strokeColor=none;labelPosition=center;verticalLabelPosition=bottom;verticalAlign=top;outlineConnect=0;align=center;shape=mxgraph.office.security.key_permissions;fillColor=#2072B8;" vertex="1" parent="1">
          <mxGeometry x="-328" y="190" width="25" height="53" as="geometry" />
        </mxCell>
        <mxCell id="YnPN1Vs9XmY59s9IWsl6-14" value="" style="sketch=0;pointerEvents=1;shadow=0;dashed=0;html=1;strokeColor=none;fillColor=#505050;labelPosition=center;verticalLabelPosition=bottom;verticalAlign=top;outlineConnect=0;align=center;shape=mxgraph.office.security.key_permissions;" vertex="1" parent="1">
          <mxGeometry x="-372" y="195" width="25" height="53" as="geometry" />
        </mxCell>
        <mxCell id="YnPN1Vs9XmY59s9IWsl6-15" value="" style="sketch=0;pointerEvents=1;shadow=0;dashed=0;html=1;strokeColor=none;labelPosition=center;verticalLabelPosition=bottom;verticalAlign=top;outlineConnect=0;align=center;shape=mxgraph.office.security.key_permissions;fillColor=#DA4026;" vertex="1" parent="1">
          <mxGeometry x="-297" y="195" width="25" height="53" as="geometry" />
        </mxCell>
      </root>
    </mxGraphModel>
  </diagram>
</mxfile>
